/* XPM */
static char * evo_xpm[] = {
"57 31 198 2",
"  	c None",
". 	c #FFFFFF",
"+ 	c #FEFEFE",
"@ 	c #FBFBFB",
"# 	c #A1A1A1",
"$ 	c #181818",
"% 	c #252525",
"& 	c #B6B6B6",
"* 	c #F0F0F0",
"= 	c #D9D9D9",
"- 	c #070707",
"; 	c #000000",
"> 	c #6E6E6E",
", 	c #353535",
"' 	c #424242",
") 	c #C5C5C5",
"! 	c #BDBDBD",
"~ 	c #0F0F0F",
"{ 	c #050505",
"] 	c #464646",
"^ 	c #EFEFEF",
"/ 	c #7D7D7D",
"( 	c #909090",
"_ 	c #C3C3C3",
": 	c #2E2E2E",
"< 	c #E6E6E6",
"[ 	c #1B1B1B",
"} 	c #4F4F4F",
"| 	c #646464",
"1 	c #626262",
"2 	c #EAEAEA",
"3 	c #090909",
"4 	c #2D2D2D",
"5 	c #B7B7B7",
"6 	c #B9B9B9",
"7 	c #787878",
"8 	c #F7F7F7",
"9 	c #343434",
"0 	c #2A2A2A",
"a 	c #D6D6D6",
"b 	c #C1C1C1",
"c 	c #3E3E3E",
"d 	c #0A0A0A",
"e 	c #202020",
"f 	c #F5F5F5",
"g 	c #F3F3F3",
"h 	c #5A5A5A",
"i 	c #858585",
"j 	c #232323",
"k 	c #818181",
"l 	c #A8A8A8",
"m 	c #BFBFBF",
"n 	c #737373",
"o 	c #ABABAB",
"p 	c #E7E7E7",
"q 	c #4A4A4A",
"r 	c #111111",
"s 	c #3F3F3F",
"t 	c #F1F1F1",
"u 	c #989898",
"v 	c #F6F6F6",
"w 	c #9A9A9A",
"x 	c #1F1F1F",
"y 	c #171717",
"z 	c #E0E0E0",
"A 	c #323232",
"B 	c #E4E4E4",
"C 	c #CBCBCB",
"D 	c #878787",
"E 	c #393939",
"F 	c #E3E3E3",
"G 	c #F2F2F2",
"H 	c #B0B0B0",
"I 	c #F4F4F4",
"J 	c #0C0C0C",
"K 	c #929292",
"L 	c #767676",
"M 	c #7B7B7B",
"N 	c #151515",
"O 	c #9B9B9B",
"P 	c #B3B3B3",
"Q 	c #838383",
"R 	c #EEEEEE",
"S 	c #E8E8E8",
"T 	c #AEAEAE",
"U 	c #8B8B8B",
"V 	c #E2E2E2",
"W 	c #CDCDCD",
"X 	c #868686",
"Y 	c #E5E5E5",
"Z 	c #0E0E0E",
"` 	c #040404",
" .	c #575757",
"..	c #FDFDFD",
"+.	c #5C5C5C",
"@.	c #191919",
"#.	c #898989",
"$.	c #212121",
"%.	c #545454",
"&.	c #DFDFDF",
"*.	c #3A3A3A",
"=.	c #080808",
"-.	c #1C1C1C",
";.	c #A6A6A6",
">.	c #ACACAC",
",.	c #060606",
"'.	c #AAAAAA",
").	c #F9F9F9",
"!.	c #282828",
"~.	c #262626",
"{.	c #777777",
"].	c #B1B1B1",
"^.	c #8F8F8F",
"/.	c #0D0D0D",
"(.	c #131313",
"_.	c #272727",
":.	c #747474",
"<.	c #F8F8F8",
"[.	c #D8D8D8",
"}.	c #E9E9E9",
"|.	c #4D4D4D",
"1.	c #161616",
"2.	c #E1E1E1",
"3.	c #8A8A8A",
"4.	c #C7C7C7",
"5.	c #0B0B0B",
"6.	c #3D3D3D",
"7.	c #5F5F5F",
"8.	c #EDEDED",
"9.	c #121212",
"0.	c #292929",
"a.	c #EBEBEB",
"b.	c #5E5E5E",
"c.	c #969696",
"d.	c #ECECEC",
"e.	c #9C9C9C",
"f.	c #9E9E9E",
"g.	c #525252",
"h.	c #101010",
"i.	c #606060",
"j.	c #BBBBBB",
"k.	c #959595",
"l.	c #020202",
"m.	c #454545",
"n.	c #404040",
"o.	c #666666",
"p.	c #010101",
"q.	c #D0D0D0",
"r.	c #8E8E8E",
"s.	c #1A1A1A",
"t.	c #686868",
"u.	c #2B2B2B",
"v.	c #FAFAFA",
"w.	c #1E1E1E",
"x.	c #7E7E7E",
"y.	c #ADADAD",
"z.	c #FCFCFC",
"A.	c #222222",
"B.	c #D7D7D7",
"C.	c #1D1D1D",
"D.	c #6C6C6C",
"E.	c #3C3C3C",
"F.	c #BCBCBC",
"G.	c #484848",
"H.	c #888888",
"I.	c #717171",
"J.	c #333333",
"K.	c #7F7F7F",
"L.	c #5B5B5B",
"M.	c #A0A0A0",
"N.	c #C4C4C4",
"O.	c #CCCCCC",
"P.	c #030303",
"Q.	c #939393",
"R.	c #676767",
"S.	c #A9A9A9",
"T.	c #515151",
"U.	c #5D5D5D",
"V.	c #656565",
"W.	c #949494",
"X.	c #7A7A7A",
"Y.	c #919191",
"Z.	c #707070",
"`.	c #DBDBDB",
" +	c #848484",
".+	c #D4D4D4",
"++	c #A3A3A3",
"@+	c #DADADA",
"#+	c #363636",
"$+	c #D1D1D1",
"%+	c #DCDCDC",
"&+	c #4B4B4B",
"*+	c #313131",
"=+	c #DEDEDE",
"-+	c #999999",
";+	c #636363",
">+	c #C0C0C0",
",+	c #383838",
"  . . . . . . . . . . . . . . . . . . . . . . . . . . . . . . . . . . . . . . . . . . . . . . . . . . . . . . . . ",
". . . . . . . . . . . . . . . . . . . . . . . . . . . . . . . . . . . . . . . . . . . . + . . . . + . . . . . . . ",
". . . . . . . . . . . . . . . . . . . . . . . . . . . . . . . + . . @ . + . . . . . . . . # $ % & . . . . . . . . ",
". . . . . . . . . . . . . . . . . . . . . . . . . . + * + . + . = - ; > . . . . . . . . . , ; ; ' . . . . . . . . ",
". . . . . . . . . . . . . . . . . . . . . . . . . . . ) , ! . + ~ ; ; { . . . . . . . . . ] ; ; , . . . . . . . . ",
". . . . . . . . . . . . . . . . . . . . . . . . . . + . ^ / ( _ ; ; ; : . . . . . . + . < [ ; ; } . + . . . . . . ",
". . . . . . . . . . . . . . . . . . . . + . . + . . . . + . . | ; ; ; 1 . . + . . . . 2 3 ; ; 4 5 . . . . . . . . ",
". . . . . . . . . . . . . . . . . . . + + 6 7 8 . + . . . . . 9 ; ; 0 a . . + . . . . b ; ; ; c . + . . . . . . . ",
". . + . . . . . . . . . . . . . . . . . < d ; e f + . . . . g ; ; ; h i j k . . + . . l ; ; ; ; m . . . . . . . . ",
". . + . . . . . . . . . . . . . . + . . n ; ; ; o . . . . . p ; ; ; ; 5 q r s t . . . u ; ; ; ; u . . . . . . . . ",
". . + . . . . . . . . . . . . . . . v w ; ; x y w . . . . . z ; ; ; ; A ' l B C . . . e ; ; ; ; D . + . . . . . . ",
". . + . . . . . . . . . . . . . . . E ; ; ; F G . + . . . . H ; ; ; ; ; ; . . . + . f ; ; ; ; ; h F 8 . . + . . . ",
". . + . . . . . . . . . . . . . + I J ; ; ; K . . + . . . . L ; ; ; ; ; M . . . . . v ; ; ; ; ; ; ; N O . . . . . ",
". . + . . . . . . + + . . . + . . P ; ; ; ; Q . . + . . . . ( ; ; ; ; 4 g + . . . . R ; ; ; ; ; S T U d V . . . . ",
". . + . . . . . . . . W X Y . + + 3 ; ; ; ; Z D . + . . . . K ; ; ; ; ( . . . . . . . ` ; ; ;  .. + . C ... . . . ",
". . + . . . . . < +.$ ; ; ; . . M ; ; ; ; @.#.$.%.&.. . . + *.; ; ; =.8 . . . . . + . -.; ; ; ;.. . + . . + . . . ",
". . + . . + . >.,.; ; ; ; ; +.. u ; ; ; ; '.. ).!.~.. . . . k ; ; ; 0 ... . . . . . B ; ; ; ; y ..+ . . . . . . . ",
". . + . + . {.; ; ; ; { ].^.b . &.; ; ; /.^ . . C q . . . . . (.; ; _.@ . . . . . . L ; ; ; ; ; n . + . . . . . . ",
". . + . . D ; ; ; ; ; :.... . . <.; ; ; ,.[.. . . }.. . . + . h ; ; ~ @ . . . . . + 8 |.; 1., ; 3 2.. . . . . . . ",
". . + . 3.; ; ; ; ; ; 4.. + . . H ; ; ; ; 5.< + + . . . . . . 6.; ; ; R . . . . . . . 7.; 7.8.9.; e @ + . . . . . ",
". . . }.J ; ; ; ; ; ; Q . . . + @ [ ; 4 0.; !.a.. + . . . + . $.; ; ; b.. . . . . . . 9 ; c.. d.5.; D . . . . . . ",
". . . } ; ; ; ,.e.; ; h . . . . . f.; g.g h.; q . + . . + . Y ; ; i.; 9.. . . . + . j.; ; a.+ . k.; h . . . . . . ",
". . . ! ; ; ; ; /.l.,.m.+ . . . . 2.,.0.. p - n.. + . + . }./.; o.* ; ; . . . . . F p.- q.. . . b ; $.. . . . . . ",
". . + . r.; ; ` ; s.t.u.+ + + . . v.9 ; g * ; n . + + + v w.; x.. y.; ; v.. . . z.A.; H . + . . B.; ; p . . . . . ",
". . + . C ; C.e ; D.G =.@ . . . Y ,.; ; z.w ; m . + . . E.; D . . F.; ; a.. . + a.=.G.. + . . . . 9 ; H.. + . . . ",
". . . I.; J.< 4 ; K.. g.W . S J 5.L.M.R . N.; < . . @ c ; O.. + . . 0.p.8.. . . _ ; 4.. + . . . . }.P.6.. . . . + ",
". . Q.5.R.. + ] ; & . S.L . z ; < . . . . W ; . . z.v $ s . + . + . :.; ).. . . T.J.. . . . . . . + U.; V.'.W.... ",
". . X.t . + . Q.; Y.. Z.| . Y { H . + . . `.;  +.+R . ).1.S . . . . ++p.H z 2 = { s @+G + . . . . . @ ; 3 N  .+ . ",
". . #.#+$+. . %+&+*+i.$+=+. I i.-+. . . . ).^.;+&+p z.. >+i.. . . . ].; ; ; ;+. * & ,+} f . . . . . . &.S ).. . + ",
". . . . + . + . . . . + . + . . . + . . . + + . . + . + . . + . . + . . ).. . + + . . . . . . . . + . . . + . . . ",
"  . . . . . . . . . . . . . . . . . . . . . . . . . . . . . . . . . . . . . . . . . . . . . . . . . . . . . . . . "};
