  0
SECTION
  2
HEADER
  9
$ACADVER
  1
AC1014
  9
$HANDSEED
  5
FFFF
  9
$MEASUREMENT
 70
     1
  0
ENDSEC
  0
SECTION
  2
TABLES
  0
TABLE
  2
VPORT
  5
8
330
0
100
AcDbSymbolTable
 70
     4
  0
VPORT
  5
2E
330
8
100
AcDbSymbolTableRecord
100
AcDbViewportTableRecord
  2
*ACTIVE
 70
     0
 10
0.0
 20
0.0
 11
1.0
 21
1.0
 12
210.0
 22
148.5
 13
0.0
 23
0.0
 14
10.0
 24
10.0
 15
10.0
 25
10.0
 16
0.0
 26
0.0
 36
1.0
 17
0.0
 27
0.0
 37
0.0
 40
341.0
 41
1.24
 42
50.0
 43
0.0
 44
0.0
 50
0.0
 51
0.0
 71
     0
 72
   100
 73
     1
 74
     3
 75
     0
 76
     0
 77
     0
 78
     0
  0
ENDTAB
  0
TABLE
  2
LTYPE
  5
5
330
0
100
AcDbSymbolTable
 70
     1
  0
LTYPE
  5
14
330
5
100
AcDbSymbolTableRecord
100
AcDbLinetypeTableRecord
  2
BYBLOCK
 70
     0
  3

 72
    65
 73
     0
 40
0.0
  0
LTYPE
  5
15
330
5
100
AcDbSymbolTableRecord
100
AcDbLinetypeTableRecord
  2
BYLAYER
 70
     0
  3

 72
    65
 73
     0
 40
0.0
  0
LTYPE
  5
16
330
5
100
AcDbSymbolTableRecord
100
AcDbLinetypeTableRecord
  2
CONTINUOUS
 70
     0
  3
Solid line
 72
    65
 73
     0
 40
0.0
  0
ENDTAB
  0
TABLE
  2
LAYER
  5
2
100
AcDbSymbolTable
 70
2
  0
LAYER
  5
50
100
AcDbSymbolTableRecord
100
AcDbLayerTableRecord
  2
0
 70
0
  6
CONTINUOUS
  0
LAYER
  5
51
100
AcDbSymbolTableRecord
100
AcDbLayerTableRecord
  2
Layer_1
 70
0
  6
CONTINUOUS
  0
ENDTAB
  0
TABLE
  2
STYLE
  5
3
330
0
100
AcDbSymbolTable
 70
     1
  0
STYLE
  5
11
330
3
100
AcDbSymbolTableRecord
100
AcDbTextStyleTableRecord
  2
STANDARD
 70
     0
 40
0.0
 41
1.0
 50
0.0
 71
     0
 42
2.5
  3
txt
  4

  0
ENDTAB
  0
TABLE
  2
VIEW
  5
6
330
0
100
AcDbSymbolTable
 70
     0
  0
ENDTAB
  0
TABLE
  2
UCS
  5
7
330
0
100
AcDbSymbolTable
 70
     0
  0
ENDTAB
  0
TABLE
  2
APPID
  5
9
330
0
100
AcDbSymbolTable
 70
     2
  0
APPID
  5
12
330
9
100
AcDbSymbolTableRecord
100
AcDbRegAppTableRecord
  2
ACAD
 70
     0
  0
ENDTAB
  0
TABLE
  2
DIMSTYLE
  5
A
330
0
100
AcDbSymbolTable
 70
     1
  0
DIMSTYLE
105
27
330
A
100
AcDbSymbolTableRecord
100
AcDbDimStyleTableRecord
  2
ISO-25
 70
     0
  3

  4

  5

  6

  7

 40
1.0
 41
2.5
 42
0.625
 43
3.75
 44
1.25
 45
0.0
 46
0.0
 47
0.0
 48
0.0
140
2.5
141
2.5
142
0.0
143
0.03937007874016
144
1.0
145
0.0
146
1.0
147
0.625
 71
     0
 72
     0
 73
     0
 74
     0
 75
     0
 76
     0
 77
     1
 78
     8
170
     0
171
     3
172
     1
173
     0
174
     0
175
     0
176
     0
177
     0
178
     0
270
     2
271
     2
272
     2
273
     2
274
     3
340
11
275
     0
280
     0
281
     0
282
     0
283
     0
284
     8
285
     0
286
     0
287
     3
288
     0
  0
ENDTAB
  0
TABLE
  2
BLOCK_RECORD
  5
1
330
0
100
AcDbSymbolTable
 70
     1
  0
BLOCK_RECORD
  5
1F
330
1
100
AcDbSymbolTableRecord
100
AcDbBlockTableRecord
  2
*MODEL_SPACE
  0
BLOCK_RECORD
  5
1B
330
1
100
AcDbSymbolTableRecord
100
AcDbBlockTableRecord
  2
*PAPER_SPACE
  0
ENDTAB
  0
ENDSEC
  0
SECTION
  2
BLOCKS
  0
BLOCK
  5
20
330
1F
100
AcDbEntity
  8
0
100
AcDbBlockBegin
  2
*MODEL_SPACE
 70
     0
 10
0.0
 20
0.0
 30
0.0
  3
*MODEL_SPACE
  1

  0
ENDBLK
  5
21
330
1F
100
AcDbEntity
  8
0
100
AcDbBlockEnd
  0
BLOCK
  5
1C
330
1B
100
AcDbEntity
 67
     1
  8
0
100
AcDbBlockBegin
  2
*PAPER_SPACE
  1

  0
ENDBLK
  5
1D
330
1B
100
AcDbEntity
 67
     1
  8
0
100
AcDbBlockEnd
  0
ENDSEC
  0
SECTION
  2
ENTITIES
  0
SPLINE
  5
100
100
AcDbEntity
  8
Layer_1
 62
7
100
AcDbSpline
 70
8
 71
3
 72
8
 73
4
 74
0
 40
0
 40
0
 40
0
 40
0
 40
1
 40
1
 40
1
 40
1
 10
107.703624
 20
628.600772
 30
0.0
 10
103.123744
 20
636.072580
 30
0.0
 10
103.123760
 20
636.072620
 30
0.0
 10
113.933456
 20
646.851148
 30
0.0
  0
SPLINE
  5
101
100
AcDbEntity
  8
Layer_1
 62
7
100
AcDbSpline
 70
8
 71
3
 72
8
 73
4
 74
0
 40
0
 40
0
 40
0
 40
0
 40
1
 40
1
 40
1
 40
1
 10
113.933456
 20
646.851148
 30
0.0
 10
119.878808
 20
652.779356
 30
0.0
 10
124.743184
 20
658.646084
 30
0.0
 10
124.743184
 20
659.888324
 30
0.0
  0
SPLINE
  5
102
100
AcDbEntity
  8
Layer_1
 62
7
100
AcDbSpline
 70
8
 71
3
 72
8
 73
4
 74
0
 40
0
 40
0
 40
0
 40
0
 40
1
 40
1
 40
1
 40
1
 10
124.743184
 20
659.888324
 30
0.0
 10
124.743184
 20
661.130564
 30
0.0
 10
122.392296
 20
664.421180
 30
0.0
 10
119.518984
 20
667.200812
 30
0.0
  0
SPLINE
  5
103
100
AcDbEntity
  8
Layer_1
 62
7
100
AcDbSpline
 70
8
 71
3
 72
8
 73
4
 74
0
 40
0
 40
0
 40
0
 40
0
 40
1
 40
1
 40
1
 40
1
 10
119.518984
 20
667.200812
 30
0.0
 10
116.645672
 20
669.980444
 30
0.0
 10
114.294784
 20
673.756180
 30
0.0
 10
114.294784
 20
675.591332
 30
0.0
  0
SPLINE
  5
104
100
AcDbEntity
  8
Layer_1
 62
7
100
AcDbSpline
 70
8
 71
3
 72
8
 73
4
 74
0
 40
0
 40
0
 40
0
 40
0
 40
1
 40
1
 40
1
 40
1
 10
114.294784
 20
675.591332
 30
0.0
 10
114.294784
 20
686.888100
 30
0.0
 10
149.538992
 20
722.064700
 30
0.0
 10
163.924696
 20
725.126044
 30
0.0
  0
SPLINE
  5
105
100
AcDbEntity
  8
Layer_1
 62
7
100
AcDbSpline
 70
8
 71
3
 72
8
 73
4
 74
0
 40
0
 40
0
 40
0
 40
0
 40
1
 40
1
 40
1
 40
1
 10
163.924696
 20
725.126044
 30
0.0
 10
167.516336
 20
725.890364
 30
0.0
 10
172.459712
 20
727.418540
 30
0.0
 10
174.909968
 20
728.521988
 30
0.0
  0
SPLINE
  5
106
100
AcDbEntity
  8
Layer_1
 62
7
100
AcDbSpline
 70
8
 71
3
 72
8
 73
4
 74
0
 40
0
 40
0
 40
0
 40
0
 40
1
 40
1
 40
1
 40
1
 10
174.909968
 20
728.521988
 30
0.0
 10
177.924264
 20
729.879452
 30
0.0
 10
181.514384
 20
728.230644
 30
0.0
 10
186.011392
 20
723.423516
 30
0.0
  0
SPLINE
  5
107
100
AcDbEntity
  8
Layer_1
 62
7
100
AcDbSpline
 70
8
 71
3
 72
8
 73
4
 74
0
 40
0
 40
0
 40
0
 40
0
 40
1
 40
1
 40
1
 40
1
 10
186.011392
 20
723.423516
 30
0.0
 10
195.379864
 20
713.408988
 30
0.0
 10
194.700872
 20
707.688212
 30
0.0
 10
184.143784
 20
707.688212
 30
0.0
  0
SPLINE
  5
108
100
AcDbEntity
  8
Layer_1
 62
7
100
AcDbSpline
 70
8
 71
3
 72
8
 73
4
 74
0
 40
0
 40
0
 40
0
 40
0
 40
1
 40
1
 40
1
 40
1
 10
184.143784
 20
707.688212
 30
0.0
 10
170.053600
 20
707.688212
 30
0.0
 10
168.100608
 20
700.967860
 30
0.0
 10
173.346568
 20
670.534348
 30
0.0
  0
SPLINE
  5
109
100
AcDbEntity
  8
Layer_1
 62
7
100
AcDbSpline
 70
8
 71
3
 72
8
 73
4
 74
0
 40
0
 40
0
 40
0
 40
0
 40
1
 40
1
 40
1
 40
1
 10
173.346568
 20
670.534348
 30
0.0
 10
179.087864
 20
637.227180
 30
0.0
 10
179.337824
 20
628.109532
 30
0.0
 10
174.509632
 20
628.109532
 30
0.0
  0
SPLINE
  5
10a
100
AcDbEntity
  8
Layer_1
 62
7
100
AcDbSpline
 70
8
 71
3
 72
8
 73
4
 74
0
 40
0
 40
0
 40
0
 40
0
 40
1
 40
1
 40
1
 40
1
 10
174.509632
 20
628.109532
 30
0.0
 10
171.894696
 20
628.109532
 30
0.0
 10
170.625168
 20
631.555316
 30
0.0
 10
170.394672
 20
639.278468
 30
0.0
  0
SPLINE
  5
10b
100
AcDbEntity
  8
Layer_1
 62
7
100
AcDbSpline
 70
8
 71
3
 72
8
 73
4
 74
0
 40
0
 40
0
 40
0
 40
0
 40
1
 40
1
 40
1
 40
1
 10
170.394672
 20
639.278468
 30
0.0
 10
170.211328
 20
645.421388
 30
0.0
 10
167.509536
 20
654.845180
 30
0.0
 10
164.390672
 20
660.220228
 30
0.0
  0
SPLINE
  5
10c
100
AcDbEntity
  8
Layer_1
 62
7
100
AcDbSpline
 70
8
 71
3
 72
8
 73
4
 74
0
 40
0
 40
0
 40
0
 40
0
 40
1
 40
1
 40
1
 40
1
 10
158.681544
 20
661.616348
 30
0.0
 10
158.660424
 20
657.009156
 30
0.0
 10
157.942056
 20
648.709572
 30
0.0
 10
157.085296
 20
643.172820
 30
0.0
  0
SPLINE
  5
10d
100
AcDbEntity
  8
Layer_1
 62
7
100
AcDbSpline
 70
8
 71
3
 72
8
 73
4
 74
0
 40
0
 40
0
 40
0
 40
0
 40
1
 40
1
 40
1
 40
1
 10
157.085296
 20
643.172820
 30
0.0
 10
155.750848
 20
634.548980
 30
0.0
 10
156.316600
 20
632.885428
 30
0.0
 10
161.032200
 20
631.567228
 30
0.0
  0
SPLINE
  5
10e
100
AcDbEntity
  8
Layer_1
 62
7
100
AcDbSpline
 70
8
 71
3
 72
8
 73
4
 74
0
 40
0
 40
0
 40
0
 40
0
 40
1
 40
1
 40
1
 40
1
 10
161.032200
 20
631.567228
 30
0.0
 10
169.202408
 20
629.283324
 30
0.0
 10
167.698064
 20
623.921180
 30
0.0
 10
158.887104
 20
623.921180
 30
0.0
  0
SPLINE
  5
10f
100
AcDbEntity
  8
Layer_1
 62
7
100
AcDbSpline
 70
8
 71
3
 72
8
 73
4
 74
0
 40
0
 40
0
 40
0
 40
0
 40
1
 40
1
 40
1
 40
1
 10
158.887104
 20
623.921180
 30
0.0
 10
148.688768
 20
623.921180
 30
0.0
 10
143.690216
 20
629.858572
 30
0.0
 10
141.651032
 20
644.394572
 30
0.0
  0
LWPOLYLINE
  5
110
100
AcDbEntity
  8
Layer_1
 62
7
100
AcDbPolyline
 90
3
 70
1
 10
164.390672
 20
660.220228
 30
0.0
 10
158.720024
 20
669.993052
 30
0.0
 10
158.681544
 20
661.616348
 30
0.0
  0
SPLINE
  5
111
100
AcDbEntity
  8
Layer_1
 62
7
100
AcDbSpline
 70
8
 71
3
 72
8
 73
4
 74
0
 40
0
 40
0
 40
0
 40
0
 40
1
 40
1
 40
1
 40
1
 10
132.220312
 20
648.692604
 30
0.0
 10
127.961608
 20
644.440036
 30
0.0
 10
122.186176
 20
640.183372
 30
0.0
 10
119.386008
 20
639.233348
 30
0.0
  0
SPLINE
  5
112
100
AcDbEntity
  8
Layer_1
 62
7
100
AcDbSpline
 70
8
 71
3
 72
8
 73
4
 74
0
 40
0
 40
0
 40
0
 40
0
 40
1
 40
1
 40
1
 40
1
 10
119.386008
 20
639.233348
 30
0.0
 10
113.364128
 20
637.190268
 30
0.0
 10
112.632584
 20
630.012220
 30
0.0
 10
118.212960
 20
627.723156
 30
0.0
  0
SPLINE
  5
113
100
AcDbEntity
  8
Layer_1
 62
7
100
AcDbSpline
 70
8
 71
3
 72
8
 73
4
 74
0
 40
0
 40
0
 40
0
 40
0
 40
1
 40
1
 40
1
 40
1
 10
118.212960
 20
627.723156
 30
0.0
 10
123.744896
 20
625.453964
 30
0.0
 10
123.085320
 20
621.128948
 30
0.0
 10
117.207328
 20
621.128948
 30
0.0
  0
SPLINE
  5
114
100
AcDbEntity
  8
Layer_1
 62
7
100
AcDbSpline
 70
8
 71
3
 72
8
 73
4
 74
0
 40
0
 40
0
 40
0
 40
0
 40
1
 40
1
 40
1
 40
1
 10
117.207328
 20
621.128948
 30
0.0
 10
114.499248
 20
621.128948
 30
0.0
 10
110.222592
 20
624.491268
 30
0.0
 10
107.703648
 20
628.600772
 30
0.0
  0
LWPOLYLINE
  5
115
100
AcDbEntity
  8
Layer_1
 62
7
100
AcDbPolyline
 90
3
 70
1
 10
141.651032
 20
644.394572
 30
0.0
 10
139.963408
 20
656.424548
 30
0.0
 10
132.220312
 20
648.692604
 30
0.0
  0
SPLINE
  5
116
100
AcDbEntity
  8
Layer_1
 62
7
100
AcDbSpline
 70
8
 71
3
 72
8
 73
4
 74
0
 40
0
 40
0
 40
0
 40
0
 40
1
 40
1
 40
1
 40
1
 10
322.150208
 20
623.781868
 30
0.0
 10
319.127704
 20
624.955348
 30
0.0
 10
316.742256
 20
628.995628
 30
0.0
 10
316.174600
 20
633.902876
 30
0.0
  0
SPLINE
  5
117
100
AcDbEntity
  8
Layer_1
 62
7
100
AcDbSpline
 70
8
 71
3
 72
8
 73
4
 74
0
 40
0
 40
0
 40
0
 40
0
 40
1
 40
1
 40
1
 40
1
 10
316.174600
 20
633.902876
 30
0.0
 10
315.654944
 20
638.395180
 30
0.0
 10
314.006104
 20
646.158700
 30
0.0
 10
312.510504
 20
651.155132
 30
0.0
  0
SPLINE
  5
118
100
AcDbEntity
  8
Layer_1
 62
7
100
AcDbSpline
 70
8
 71
3
 72
8
 73
4
 74
0
 40
0
 40
0
 40
0
 40
0
 40
1
 40
1
 40
1
 40
1
 10
312.510504
 20
651.155132
 30
0.0
 10
311.014896
 20
656.151572
 30
0.0
 10
310.564840
 20
664.004732
 30
0.0
 10
311.510376
 20
668.606596
 30
0.0
  0
SPLINE
  5
119
100
AcDbEntity
  8
Layer_1
 62
7
100
AcDbSpline
 70
8
 71
3
 72
8
 73
4
 74
0
 40
0
 40
0
 40
0
 40
0
 40
1
 40
1
 40
1
 40
1
 10
311.510376
 20
668.606596
 30
0.0
 10
312.455912
 20
673.208468
 30
0.0
 10
312.451680
 20
676.973636
 30
0.0
 10
311.500936
 20
676.973636
 30
0.0
  0
SPLINE
  5
11a
100
AcDbEntity
  8
Layer_1
 62
7
100
AcDbSpline
 70
8
 71
3
 72
8
 73
4
 74
0
 40
0
 40
0
 40
0
 40
0
 40
1
 40
1
 40
1
 40
1
 10
311.500936
 20
676.973636
 30
0.0
 10
310.550232
 20
676.973636
 30
0.0
 10
302.064072
 20
668.854412
 30
0.0
 10
292.642800
 20
658.930916
 30
0.0
  0
SPLINE
  5
11b
100
AcDbEntity
  8
Layer_1
 62
7
100
AcDbSpline
 70
8
 71
3
 72
8
 73
4
 74
0
 40
0
 40
0
 40
0
 40
0
 40
1
 40
1
 40
1
 40
1
 10
292.642800
 20
658.930916
 30
0.0
 10
275.672336
 20
641.055796
 30
0.0
 10
275.553016
 20
640.823276
 30
0.0
 10
279.797256
 20
633.899044
 30
0.0
  0
SPLINE
  5
11c
100
AcDbEntity
  8
Layer_1
 62
7
100
AcDbSpline
 70
8
 71
3
 72
8
 73
4
 74
0
 40
0
 40
0
 40
0
 40
0
 40
1
 40
1
 40
1
 40
1
 10
279.797256
 20
633.899044
 30
0.0
 10
284.720104
 20
625.867708
 30
0.0
 10
285.072104
 20
623.921180
 30
0.0
 10
281.601592
 20
623.921180
 30
0.0
  0
SPLINE
  5
11d
100
AcDbEntity
  8
Layer_1
 62
7
100
AcDbSpline
 70
8
 71
3
 72
8
 73
4
 74
0
 40
0
 40
0
 40
0
 40
0
 40
1
 40
1
 40
1
 40
1
 10
281.601592
 20
623.921180
 30
0.0
 10
279.095088
 20
623.921180
 30
0.0
 10
263.170376
 20
640.885508
 30
0.0
 10
263.253760
 20
643.466820
 30
0.0
  0
SPLINE
  5
11e
100
AcDbEntity
  8
Layer_1
 62
7
100
AcDbSpline
 70
8
 71
3
 72
8
 73
4
 74
0
 40
0
 40
0
 40
0
 40
0
 40
1
 40
1
 40
1
 40
1
 10
263.253760
 20
643.466820
 30
0.0
 10
263.278560
 20
644.234684
 30
0.0
 10
269.781808
 20
652.253604
 30
0.0
 10
277.705424
 20
661.286628
 30
0.0
  0
SPLINE
  5
11f
100
AcDbEntity
  8
Layer_1
 62
7
100
AcDbSpline
 70
8
 71
3
 72
8
 73
4
 74
0
 40
0
 40
0
 40
0
 40
0
 40
1
 40
1
 40
1
 40
1
 10
277.705424
 20
661.286628
 30
0.0
 10
294.160736
 20
680.045916
 30
0.0
 10
298.259664
 20
694.635284
 30
0.0
 10
291.198256
 20
709.311836
 30
0.0
  0
SPLINE
  5
120
100
AcDbEntity
  8
Layer_1
 62
7
100
AcDbSpline
 70
8
 71
3
 72
8
 73
4
 74
0
 40
0
 40
0
 40
0
 40
0
 40
1
 40
1
 40
1
 40
1
 10
291.198256
 20
709.311836
 30
0.0
 10
287.953296
 20
716.056228
 30
0.0
 10
287.692616
 20
722.515132
 30
0.0
 10
289.686080
 20
746.779492
 30
0.0
  0
SPLINE
  5
121
100
AcDbEntity
  8
Layer_1
 62
7
100
AcDbSpline
 70
8
 71
3
 72
8
 73
4
 74
0
 40
0
 40
0
 40
0
 40
0
 40
1
 40
1
 40
1
 40
1
 10
289.686080
 20
746.779492
 30
0.0
 10
291.010864
 20
762.904649
 30
0.0
 10
293.229896
 20
778.279002
 30
0.0
 10
294.617264
 20
780.944726
 30
0.0
  0
SPLINE
  5
122
100
AcDbEntity
  8
Layer_1
 62
7
100
AcDbSpline
 70
8
 71
3
 72
8
 73
4
 74
0
 40
0
 40
0
 40
0
 40
0
 40
1
 40
1
 40
1
 40
1
 10
294.617264
 20
780.944726
 30
0.0
 10
296.748672
 20
785.040077
 30
0.0
 10
294.608944
 20
787.163172
 30
0.0
 10
280.815144
 20
794.639022
 30
0.0
  0
SPLINE
  5
123
100
AcDbEntity
  8
Layer_1
 62
7
100
AcDbSpline
 70
8
 71
3
 72
8
 73
4
 74
0
 40
0
 40
0
 40
0
 40
0
 40
1
 40
1
 40
1
 40
1
 10
280.815144
 20
794.639022
 30
0.0
 10
271.836608
 20
799.505164
 30
0.0
 10
265.974792
 20
804.030806
 30
0.0
 10
267.788872
 20
804.696005
 30
0.0
  0
SPLINE
  5
124
100
AcDbEntity
  8
Layer_1
 62
7
100
AcDbSpline
 70
8
 71
3
 72
8
 73
4
 74
0
 40
0
 40
0
 40
0
 40
0
 40
1
 40
1
 40
1
 40
1
 10
267.788872
 20
804.696005
 30
0.0
 10
269.602960
 20
805.361205
 30
0.0
 10
276.277216
 20
802.654161
 30
0.0
 10
282.620560
 20
798.680352
 30
0.0
  0
SPLINE
  5
125
100
AcDbEntity
  8
Layer_1
 62
7
100
AcDbSpline
 70
8
 71
3
 72
8
 73
4
 74
0
 40
0
 40
0
 40
0
 40
0
 40
1
 40
1
 40
1
 40
1
 10
282.620560
 20
798.680352
 30
0.0
 10
296.257536
 20
790.137429
 30
0.0
 10
299.753896
 20
789.693721
 30
0.0
 10
299.753896
 20
796.506036
 30
0.0
  0
SPLINE
  5
126
100
AcDbEntity
  8
Layer_1
 62
7
100
AcDbSpline
 70
8
 71
3
 72
8
 73
4
 74
0
 40
0
 40
0
 40
0
 40
0
 40
1
 40
1
 40
1
 40
1
 10
299.753896
 20
796.506036
 30
0.0
 10
299.753896
 20
808.235189
 30
0.0
 10
311.563848
 20
815.926249
 30
0.0
 10
321.303728
 20
810.540052
 30
0.0
  0
SPLINE
  5
127
100
AcDbEntity
  8
Layer_1
 62
7
100
AcDbSpline
 70
8
 71
3
 72
8
 73
4
 74
0
 40
0
 40
0
 40
0
 40
0
 40
1
 40
1
 40
1
 40
1
 10
321.303728
 20
810.540052
 30
0.0
 10
327.093432
 20
807.338319
 30
0.0
 10
327.547792
 20
788.057918
 30
0.0
 10
321.973944
 20
782.099693
 30
0.0
  0
SPLINE
  5
128
100
AcDbEntity
  8
Layer_1
 62
7
100
AcDbSpline
 70
8
 71
3
 72
8
 73
4
 74
0
 40
0
 40
0
 40
0
 40
0
 40
1
 40
1
 40
1
 40
1
 10
321.973944
 20
782.099693
 30
0.0
 10
318.514064
 20
778.401216
 30
0.0
 10
318.979296
 20
777.716931
 30
0.0
 10
326.088528
 20
776.047803
 30
0.0
  0
SPLINE
  5
129
100
AcDbEntity
  8
Layer_1
 62
7
100
AcDbSpline
 70
8
 71
3
 72
8
 73
4
 74
0
 40
0
 40
0
 40
0
 40
0
 40
1
 40
1
 40
1
 40
1
 10
326.088528
 20
776.047803
 30
0.0
 10
335.071912
 20
773.938656
 30
0.0
 10
351.715520
 20
763.419674
 30
0.0
 10
351.885352
 20
759.743868
 30
0.0
  0
SPLINE
  5
12a
100
AcDbEntity
  8
Layer_1
 62
7
100
AcDbSpline
 70
8
 71
3
 72
8
 73
4
 74
0
 40
0
 40
0
 40
0
 40
0
 40
1
 40
1
 40
1
 40
1
 10
351.885352
 20
759.743868
 30
0.0
 10
351.946152
 20
758.427772
 30
0.0
 10
349.938888
 20
758.206740
 30
0.0
 10
347.424736
 20
759.252692
 30
0.0
  0
SPLINE
  5
12b
100
AcDbEntity
  8
Layer_1
 62
7
100
AcDbSpline
 70
8
 71
3
 72
8
 73
4
 74
0
 40
0
 40
0
 40
0
 40
0
 40
1
 40
1
 40
1
 40
1
 10
347.424736
 20
759.252692
 30
0.0
 10
339.224880
 20
762.664062
 30
0.0
 10
338.315368
 20
762.240721
 30
0.0
 10
335.624352
 20
753.760084
 30
0.0
  0
SPLINE
  5
12c
100
AcDbEntity
  8
Layer_1
 62
7
100
AcDbSpline
 70
8
 71
3
 72
8
 73
4
 74
0
 40
0
 40
0
 40
0
 40
0
 40
1
 40
1
 40
1
 40
1
 10
335.624352
 20
753.760084
 30
0.0
 10
334.162432
 20
749.152892
 30
0.0
 10
330.916424
 20
742.242116
 30
0.0
 10
328.411000
 20
738.402796
 30
0.0
  0
SPLINE
  5
12d
100
AcDbEntity
  8
Layer_1
 62
7
100
AcDbSpline
 70
8
 71
3
 72
8
 73
4
 74
0
 40
0
 40
0
 40
0
 40
0
 40
1
 40
1
 40
1
 40
1
 10
328.411000
 20
738.402796
 30
0.0
 10
321.492680
 20
727.801140
 30
0.0
 10
318.845704
 20
713.335532
 30
0.0
 10
321.257912
 20
699.311508
 30
0.0
  0
SPLINE
  5
12e
100
AcDbEntity
  8
Layer_1
 62
7
100
AcDbSpline
 70
8
 71
3
 72
8
 73
4
 74
0
 40
0
 40
0
 40
0
 40
0
 40
1
 40
1
 40
1
 40
1
 10
321.257912
 20
699.311508
 30
0.0
 10
326.608072
 20
668.206868
 30
0.0
 10
328.526592
 20
649.812740
 30
0.0
 10
327.238912
 20
641.967708
 30
0.0
  0
SPLINE
  5
12f
100
AcDbEntity
  8
Layer_1
 62
7
100
AcDbSpline
 70
8
 71
3
 72
8
 73
4
 74
0
 40
0
 40
0
 40
0
 40
0
 40
1
 40
1
 40
1
 40
1
 10
327.238912
 20
641.967708
 30
0.0
 10
325.940680
 20
634.058444
 30
0.0
 10
326.416200
 20
633.441652
 30
0.0
 10
334.307704
 20
632.798876
 30
0.0
  0
SPLINE
  5
130
100
AcDbEntity
  8
Layer_1
 62
7
100
AcDbSpline
 70
8
 71
3
 72
8
 73
4
 74
0
 40
0
 40
0
 40
0
 40
0
 40
1
 40
1
 40
1
 40
1
 10
334.307704
 20
632.798876
 30
0.0
 10
342.187792
 20
632.157020
 30
0.0
 10
349.182024
 20
628.150628
 30
0.0
 10
346.597568
 20
625.759052
 30
0.0
  0
SPLINE
  5
131
100
AcDbEntity
  8
Layer_1
 62
7
100
AcDbSpline
 70
8
 71
3
 72
8
 73
4
 74
0
 40
0
 40
0
 40
0
 40
0
 40
1
 40
1
 40
1
 40
1
 10
346.597568
 20
625.759052
 30
0.0
 10
344.010400
 20
623.364956
 30
0.0
 10
326.807504
 20
621.973668
 30
0.0
 10
322.150168
 20
623.781868
 30
0.0
  0
LWPOLYLINE
  5
132
100
AcDbEntity
  8
Layer_1
 62
7
100
AcDbPolyline
 90
2
 70
1
 10
107.703648
 20
628.600772
 30
0.0
 10
107.703624
 20
628.600772
 30
0.0
  0
SPLINE
  5
133
100
AcDbEntity
  8
Layer_1
 62
7
100
AcDbSpline
 70
8
 71
3
 72
8
 73
4
 74
0
 40
0
 40
0
 40
0
 40
0
 40
1
 40
1
 40
1
 40
1
 10
328.377352
 20
766.544241
 30
0.0
 10
326.121608
 20
771.049790
 30
0.0
 10
316.583592
 20
776.940866
 30
0.0
 10
318.557216
 20
772.609563
 30
0.0
  0
SPLINE
  5
134
100
AcDbEntity
  8
Layer_1
 62
7
100
AcDbSpline
 70
8
 71
3
 72
8
 73
4
 74
0
 40
0
 40
0
 40
0
 40
0
 40
1
 40
1
 40
1
 40
1
 10
318.557216
 20
772.609563
 30
0.0
 10
325.634432
 20
757.077948
 30
0.0
 10
326.936408
 20
755.266428
 30
0.0
 10
328.757840
 20
758.416804
 30
0.0
  0
SPLINE
  5
135
100
AcDbEntity
  8
Layer_1
 62
7
100
AcDbSpline
 70
8
 71
3
 72
8
 73
4
 74
0
 40
0
 40
0
 40
0
 40
0
 40
1
 40
1
 40
1
 40
1
 10
328.757840
 20
758.416804
 30
0.0
 10
329.845072
 20
760.297300
 30
0.0
 10
329.673848
 20
763.954645
 30
0.0
 10
328.377352
 20
766.544241
 30
0.0
  0
LWPOLYLINE
  5
136
100
AcDbEntity
  8
Layer_1
 62
7
100
AcDbPolyline
 90
2
 70
1
 10
322.150168
 20
623.781868
 30
0.0
 10
322.150208
 20
623.781868
 30
0.0
  0
SPLINE
  5
137
100
AcDbEntity
  8
Layer_1
 62
7
100
AcDbSpline
 70
8
 71
3
 72
8
 73
4
 74
0
 40
0
 40
0
 40
0
 40
0
 40
1
 40
1
 40
1
 40
1
 10
357.683768
 20
625.635700
 30
0.0
 10
352.729976
 20
627.948108
 30
0.0
 10
349.579968
 20
631.146052
 30
0.0
 10
350.344592
 20
633.086572
 30
0.0
  0
SPLINE
  5
138
100
AcDbEntity
  8
Layer_1
 62
7
100
AcDbSpline
 70
8
 71
3
 72
8
 73
4
 74
0
 40
0
 40
0
 40
0
 40
0
 40
1
 40
1
 40
1
 40
1
 10
350.344592
 20
633.086572
 30
0.0
 10
351.081360
 20
634.956388
 30
0.0
 10
353.550288
 20
642.896804
 30
0.0
 10
355.831096
 20
650.731940
 30
0.0
  0
SPLINE
  5
139
100
AcDbEntity
  8
Layer_1
 62
7
100
AcDbSpline
 70
8
 71
3
 72
8
 73
4
 74
0
 40
0
 40
0
 40
0
 40
0
 40
1
 40
1
 40
1
 40
1
 10
355.831096
 20
650.731940
 30
0.0
 10
358.111912
 20
658.567076
 30
0.0
 10
362.883840
 20
667.895772
 30
0.0
 10
366.435408
 20
671.462364
 30
0.0
  0
SPLINE
  5
13a
100
AcDbEntity
  8
Layer_1
 62
7
100
AcDbSpline
 70
8
 71
3
 72
8
 73
4
 74
0
 40
0
 40
0
 40
0
 40
0
 40
1
 40
1
 40
1
 40
1
 10
366.435408
 20
671.462364
 30
0.0
 10
371.121416
 20
676.168236
 30
0.0
 10
372.892760
 20
680.877364
 30
0.0
 10
372.892760
 20
688.629300
 30
0.0
  0
SPLINE
  5
13b
100
AcDbEntity
  8
Layer_1
 62
7
100
AcDbSpline
 70
8
 71
3
 72
8
 73
4
 74
0
 40
0
 40
0
 40
0
 40
0
 40
1
 40
1
 40
1
 40
1
 10
372.892760
 20
688.629300
 30
0.0
 10
372.892760
 20
694.633116
 30
0.0
 10
371.615336
 20
699.311508
 30
0.0
 10
369.976008
 20
699.311508
 30
0.0
  0
SPLINE
  5
13c
100
AcDbEntity
  8
Layer_1
 62
7
100
AcDbSpline
 70
8
 71
3
 72
8
 73
4
 74
0
 40
0
 40
0
 40
0
 40
0
 40
1
 40
1
 40
1
 40
1
 10
369.976008
 20
699.311508
 30
0.0
 10
368.130224
 20
699.311508
 30
0.0
 10
367.756192
 20
701.618332
 30
0.0
 10
368.957344
 20
705.594036
 30
0.0
  0
SPLINE
  5
13d
100
AcDbEntity
  8
Layer_1
 62
7
100
AcDbSpline
 70
8
 71
3
 72
8
 73
4
 74
0
 40
0
 40
0
 40
0
 40
0
 40
1
 40
1
 40
1
 40
1
 10
368.957344
 20
705.594036
 30
0.0
 10
370.001296
 20
709.049428
 30
0.0
 10
371.154200
 20
721.300356
 30
0.0
 10
371.519344
 20
732.818324
 30
0.0
  0
SPLINE
  5
13e
100
AcDbEntity
  8
Layer_1
 62
7
100
AcDbSpline
 70
8
 71
3
 72
8
 73
4
 74
0
 40
0
 40
0
 40
0
 40
0
 40
1
 40
1
 40
1
 40
1
 10
371.519344
 20
732.818324
 30
0.0
 10
372.534040
 20
764.824663
 30
0.0
 10
375.571832
 20
782.277806
 30
0.0
 10
381.050456
 20
787.577800
 30
0.0
  0
SPLINE
  5
13f
100
AcDbEntity
  8
Layer_1
 62
7
100
AcDbSpline
 70
8
 71
3
 72
8
 73
4
 74
0
 40
0
 40
0
 40
0
 40
0
 40
1
 40
1
 40
1
 40
1
 10
381.050456
 20
787.577800
 30
0.0
 10
383.866328
 20
790.301870
 30
0.0
 10
385.953264
 20
796.058765
 30
0.0
 10
385.953264
 20
801.102382
 30
0.0
  0
SPLINE
  5
140
100
AcDbEntity
  8
Layer_1
 62
7
100
AcDbSpline
 70
8
 71
3
 72
8
 73
4
 74
0
 40
0
 40
0
 40
0
 40
0
 40
1
 40
1
 40
1
 40
1
 10
385.953264
 20
801.102382
 30
0.0
 10
385.953264
 20
805.932269
 30
0.0
 10
387.363800
 20
811.391801
 30
0.0
 10
389.087784
 20
813.234676
 30
0.0
  0
SPLINE
  5
141
100
AcDbEntity
  8
Layer_1
 62
7
100
AcDbSpline
 70
8
 71
3
 72
8
 73
4
 74
0
 40
0
 40
0
 40
0
 40
0
 40
1
 40
1
 40
1
 40
1
 10
389.087784
 20
813.234676
 30
0.0
 10
396.640592
 20
821.308336
 30
0.0
 10
412.118752
 20
813.062738
 30
0.0
 10
412.038616
 20
801.008205
 30
0.0
  0
SPLINE
  5
142
100
AcDbEntity
  8
Layer_1
 62
7
100
AcDbSpline
 70
8
 71
3
 72
8
 73
4
 74
0
 40
0
 40
0
 40
0
 40
0
 40
1
 40
1
 40
1
 40
1
 10
412.038616
 20
801.008205
 30
0.0
 10
411.972936
 20
791.134162
 30
0.0
 10
408.887976
 20
783.078544
 30
0.0
 10
405.172288
 20
783.078544
 30
0.0
  0
SPLINE
  5
143
100
AcDbEntity
  8
Layer_1
 62
7
100
AcDbSpline
 70
8
 71
3
 72
8
 73
4
 74
0
 40
0
 40
0
 40
0
 40
0
 40
1
 40
1
 40
1
 40
1
 10
405.172288
 20
783.078544
 30
0.0
 10
402.075096
 20
783.078544
 30
0.0
 10
402.123368
 20
781.772792
 30
0.0
 10
405.476944
 20
774.840502
 30
0.0
  0
SPLINE
  5
144
100
AcDbEntity
  8
Layer_1
 62
7
100
AcDbSpline
 70
8
 71
3
 72
8
 73
4
 74
0
 40
0
 40
0
 40
0
 40
0
 40
1
 40
1
 40
1
 40
1
 10
405.476944
 20
774.840502
 30
0.0
 10
407.668808
 20
770.309580
 30
0.0
 10
409.462168
 20
762.353111
 30
0.0
 10
409.462168
 20
757.159460
 30
0.0
  0
SPLINE
  5
145
100
AcDbEntity
  8
Layer_1
 62
7
100
AcDbSpline
 70
8
 71
3
 72
8
 73
4
 74
0
 40
0
 40
0
 40
0
 40
0
 40
1
 40
1
 40
1
 40
1
 10
409.462168
 20
757.159460
 30
0.0
 10
409.462168
 20
748.843100
 30
0.0
 10
410.527568
 20
747.366940
 30
0.0
 10
418.391872
 20
744.786868
 30
0.0
  0
SPLINE
  5
146
100
AcDbEntity
  8
Layer_1
 62
7
100
AcDbSpline
 70
8
 71
3
 72
8
 73
4
 74
0
 40
0
 40
0
 40
0
 40
0
 40
1
 40
1
 40
1
 40
1
 10
418.391872
 20
744.786868
 30
0.0
 10
424.310760
 20
742.845036
 30
0.0
 10
428.197224
 20
742.793340
 30
0.0
 10
429.918704
 20
744.633548
 30
0.0
  0
SPLINE
  5
147
100
AcDbEntity
  8
Layer_1
 62
7
100
AcDbSpline
 70
8
 71
3
 72
8
 73
4
 74
0
 40
0
 40
0
 40
0
 40
0
 40
1
 40
1
 40
1
 40
1
 10
429.918704
 20
744.633548
 30
0.0
 10
433.529936
 20
748.493780
 30
0.0
 10
438.299792
 20
744.735156
 30
0.0
 10
436.423336
 20
739.507940
 30
0.0
  0
SPLINE
  5
148
100
AcDbEntity
  8
Layer_1
 62
7
100
AcDbSpline
 70
8
 71
3
 72
8
 73
4
 74
0
 40
0
 40
0
 40
0
 40
0
 40
1
 40
1
 40
1
 40
1
 10
436.423336
 20
739.507940
 30
0.0
 10
435.574248
 20
737.142668
 30
0.0
 10
437.388744
 20
731.579508
 30
0.0
 10
440.455552
 20
727.145372
 30
0.0
  0
SPLINE
  5
149
100
AcDbEntity
  8
Layer_1
 62
7
100
AcDbSpline
 70
8
 71
3
 72
8
 73
4
 74
0
 40
0
 40
0
 40
0
 40
0
 40
1
 40
1
 40
1
 40
1
 10
440.455552
 20
727.145372
 30
0.0
 10
448.625736
 20
715.332532
 30
0.0
 10
447.514416
 20
713.272684
 30
0.0
 10
432.971080
 20
713.272684
 30
0.0
  0
SPLINE
  5
14a
100
AcDbEntity
  8
Layer_1
 62
7
100
AcDbSpline
 70
8
 71
3
 72
8
 73
4
 74
0
 40
0
 40
0
 40
0
 40
0
 40
1
 40
1
 40
1
 40
1
 10
432.971080
 20
713.272684
 30
0.0
 10
419.423288
 20
713.272684
 30
0.0
 10
417.832648
 20
715.073868
 30
0.0
 10
422.734304
 20
724.864332
 30
0.0
  0
SPLINE
  5
14b
100
AcDbEntity
  8
Layer_1
 62
7
100
AcDbSpline
 70
8
 71
3
 72
8
 73
4
 74
0
 40
0
 40
0
 40
0
 40
0
 40
1
 40
1
 40
1
 40
1
 10
422.734304
 20
724.864332
 30
0.0
 10
426.102848
 20
731.592556
 30
0.0
 10
426.052984
 20
731.657068
 30
0.0
 10
415.643968
 20
734.038620
 30
0.0
  0
SPLINE
  5
14c
100
AcDbEntity
  8
Layer_1
 62
7
100
AcDbSpline
 70
8
 71
3
 72
8
 73
4
 74
0
 40
0
 40
0
 40
0
 40
0
 40
1
 40
1
 40
1
 40
1
 10
415.643968
 20
734.038620
 30
0.0
 10
408.166592
 20
735.749412
 30
0.0
 10
407.207976
 20
735.140940
 30
0.0
 10
404.552568
 20
726.998348
 30
0.0
  0
SPLINE
  5
14d
100
AcDbEntity
  8
Layer_1
 62
7
100
AcDbSpline
 70
8
 71
3
 72
8
 73
4
 74
0
 40
0
 40
0
 40
0
 40
0
 40
1
 40
1
 40
1
 40
1
 10
404.552568
 20
726.998348
 30
0.0
 10
401.493824
 20
717.618884
 30
0.0
 10
403.779048
 20
711.595316
 30
0.0
 10
418.764040
 20
689.538692
 30
0.0
  0
SPLINE
  5
14e
100
AcDbEntity
  8
Layer_1
 62
7
100
AcDbSpline
 70
8
 71
3
 72
8
 73
4
 74
0
 40
0
 40
0
 40
0
 40
0
 40
1
 40
1
 40
1
 40
1
 10
418.764040
 20
689.538692
 30
0.0
 10
421.894096
 20
684.931500
 30
0.0
 10
425.228000
 20
675.698884
 30
0.0
 10
426.172720
 20
669.021772
 30
0.0
  0
SPLINE
  5
14f
100
AcDbEntity
  8
Layer_1
 62
7
100
AcDbSpline
 70
8
 71
3
 72
8
 73
4
 74
0
 40
0
 40
0
 40
0
 40
0
 40
1
 40
1
 40
1
 40
1
 10
426.172720
 20
669.021772
 30
0.0
 10
427.117408
 20
662.344652
 30
0.0
 10
429.561264
 20
652.606732
 30
0.0
 10
431.603488
 20
647.381956
 30
0.0
  0
SPLINE
  5
150
100
AcDbEntity
  8
Layer_1
 62
7
100
AcDbSpline
 70
8
 71
3
 72
8
 73
4
 74
0
 40
0
 40
0
 40
0
 40
0
 40
1
 40
1
 40
1
 40
1
 10
431.603488
 20
647.381956
 30
0.0
 10
434.838336
 20
639.105924
 30
0.0
 10
436.511336
 20
637.882348
 30
0.0
 10
444.592232
 20
637.882348
 30
0.0
  0
SPLINE
  5
151
100
AcDbEntity
  8
Layer_1
 62
7
100
AcDbSpline
 70
8
 71
3
 72
8
 73
4
 74
0
 40
0
 40
0
 40
0
 40
0
 40
1
 40
1
 40
1
 40
1
 10
444.592232
 20
637.882348
 30
0.0
 10
457.079640
 20
637.882348
 30
0.0
 10
457.041040
 20
630.763492
 30
0.0
 10
444.539992
 20
628.256556
 30
0.0
  0
SPLINE
  5
152
100
AcDbEntity
  8
Layer_1
 62
7
100
AcDbSpline
 70
8
 71
3
 72
8
 73
4
 74
0
 40
0
 40
0
 40
0
 40
0
 40
1
 40
1
 40
1
 40
1
 10
444.539992
 20
628.256556
 30
0.0
 10
439.409672
 20
627.227732
 30
0.0
 10
433.670312
 20
625.753516
 30
0.0
 10
431.785864
 20
624.980516
 30
0.0
  0
SPLINE
  5
153
100
AcDbEntity
  8
Layer_1
 62
7
100
AcDbSpline
 70
8
 71
3
 72
8
 73
4
 74
0
 40
0
 40
0
 40
0
 40
0
 40
1
 40
1
 40
1
 40
1
 10
431.785864
 20
624.980516
 30
0.0
 10
427.828944
 20
623.357372
 30
0.0
 10
409.462168
 20
660.822388
 30
0.0
 10
409.462168
 20
670.517028
 30
0.0
  0
SPLINE
  5
154
100
AcDbEntity
  8
Layer_1
 62
7
100
AcDbSpline
 70
8
 71
3
 72
8
 73
4
 74
0
 40
0
 40
0
 40
0
 40
0
 40
1
 40
1
 40
1
 40
1
 10
409.462168
 20
670.517028
 30
0.0
 10
409.462168
 20
673.849468
 30
0.0
 10
405.526704
 20
681.036588
 30
0.0
 10
400.716672
 20
686.488404
 30
0.0
  0
LWPOLYLINE
  5
155
100
AcDbEntity
  8
Layer_1
 62
7
100
AcDbPolyline
 90
2
 70
1
 10
328.377352
 20
766.544241
 30
0.0
 10
328.377352
 20
766.544241
 30
0.0
  0
SPLINE
  5
156
100
AcDbEntity
  8
Layer_1
 62
7
100
AcDbSpline
 70
8
 71
3
 72
8
 73
4
 74
0
 40
0
 40
0
 40
0
 40
0
 40
1
 40
1
 40
1
 40
1
 10
388.667160
 20
684.593044
 30
0.0
 10
386.849944
 20
678.098772
 30
0.0
 10
381.642592
 20
668.378300
 30
0.0
 10
377.095288
 20
662.991980
 30
0.0
  0
SPLINE
  5
157
100
AcDbEntity
  8
Layer_1
 62
7
100
AcDbSpline
 70
8
 71
3
 72
8
 73
4
 74
0
 40
0
 40
0
 40
0
 40
0
 40
1
 40
1
 40
1
 40
1
 10
377.095288
 20
662.991980
 30
0.0
 10
372.547992
 20
657.605660
 30
0.0
 10
367.183384
 20
648.955764
 30
0.0
 10
365.173920
 20
643.769980
 30
0.0
  0
SPLINE
  5
158
100
AcDbEntity
  8
Layer_1
 62
7
100
AcDbSpline
 70
8
 71
3
 72
8
 73
4
 74
0
 40
0
 40
0
 40
0
 40
0
 40
1
 40
1
 40
1
 40
1
 10
365.173920
 20
643.769980
 30
0.0
 10
361.847248
 20
635.184804
 30
0.0
 10
361.956912
 20
634.000084
 30
0.0
 10
366.399784
 20
630.527356
 30
0.0
  0
SPLINE
  5
159
100
AcDbEntity
  8
Layer_1
 62
7
100
AcDbSpline
 70
8
 71
3
 72
8
 73
4
 74
0
 40
0
 40
0
 40
0
 40
0
 40
1
 40
1
 40
1
 40
1
 10
366.399784
 20
630.527356
 30
0.0
 10
369.083432
 20
628.429684
 30
0.0
 10
372.817664
 20
626.713412
 30
0.0
 10
374.698064
 20
626.713412
 30
0.0
  0
SPLINE
  5
15a
100
AcDbEntity
  8
Layer_1
 62
7
100
AcDbSpline
 70
8
 71
3
 72
8
 73
4
 74
0
 40
0
 40
0
 40
0
 40
0
 40
1
 40
1
 40
1
 40
1
 10
374.698064
 20
626.713412
 30
0.0
 10
376.578456
 20
626.713412
 30
0.0
 10
378.116960
 20
625.456908
 30
0.0
 10
378.116960
 20
623.921180
 30
0.0
  0
SPLINE
  5
15b
100
AcDbEntity
  8
Layer_1
 62
7
100
AcDbSpline
 70
8
 71
3
 72
8
 73
4
 74
0
 40
0
 40
0
 40
0
 40
0
 40
1
 40
1
 40
1
 40
1
 10
378.116960
 20
623.921180
 30
0.0
 10
378.116960
 20
619.991972
 30
0.0
 10
367.945784
 20
620.845428
 30
0.0
 10
357.683768
 20
625.635700
 30
0.0
  0
LWPOLYLINE
  5
15c
100
AcDbEntity
  8
Layer_1
 62
7
100
AcDbPolyline
 90
3
 70
1
 10
400.716672
 20
686.488404
 30
0.0
 10
391.971176
 20
696.400804
 30
0.0
 10
388.667160
 20
684.593044
 30
0.0
  0
SPLINE
  5
15d
100
AcDbEntity
  8
Layer_1
 62
7
100
AcDbSpline
 70
8
 71
3
 72
8
 73
4
 74
0
 40
0
 40
0
 40
0
 40
0
 40
1
 40
1
 40
1
 40
1
 10
197.228984
 20
626.937068
 30
0.0
 10
188.459608
 20
632.396996
 30
0.0
 10
192.622952
 20
654.635756
 30
0.0
 10
202.414480
 20
654.635756
 30
0.0
  0
SPLINE
  5
15e
100
AcDbEntity
  8
Layer_1
 62
7
100
AcDbSpline
 70
8
 71
3
 72
8
 73
4
 74
0
 40
0
 40
0
 40
0
 40
0
 40
1
 40
1
 40
1
 40
1
 10
202.414480
 20
654.635756
 30
0.0
 10
204.332680
 20
654.635756
 30
0.0
 10
208.711792
 20
656.603684
 30
0.0
 10
212.145832
 20
659.008924
 30
0.0
  0
LWPOLYLINE
  5
15f
100
AcDbEntity
  8
Layer_1
 62
7
100
AcDbPolyline
 90
2
 70
1
 10
357.683768
 20
625.635700
 30
0.0
 10
357.683768
 20
625.635700
 30
0.0
  0
SPLINE
  5
160
100
AcDbEntity
  8
Layer_1
 62
7
100
AcDbSpline
 70
8
 71
3
 72
8
 73
4
 74
0
 40
0
 40
0
 40
0
 40
0
 40
1
 40
1
 40
1
 40
1
 10
211.819312
 20
677.365228
 30
0.0
 10
207.635704
 20
686.269012
 30
0.0
 10
205.810264
 20
693.738564
 30
0.0
 10
206.794008
 20
697.928404
 30
0.0
  0
SPLINE
  5
161
100
AcDbEntity
  8
Layer_1
 62
7
100
AcDbSpline
 70
8
 71
3
 72
8
 73
4
 74
0
 40
0
 40
0
 40
0
 40
0
 40
1
 40
1
 40
1
 40
1
 10
206.794008
 20
697.928404
 30
0.0
 10
207.643728
 20
701.547420
 30
0.0
 10
207.159728
 20
707.823892
 30
0.0
 10
205.718464
 20
711.876132
 30
0.0
  0
SPLINE
  5
162
100
AcDbEntity
  8
Layer_1
 62
7
100
AcDbSpline
 70
8
 71
3
 72
8
 73
4
 74
0
 40
0
 40
0
 40
0
 40
0
 40
1
 40
1
 40
1
 40
1
 10
205.718464
 20
711.876132
 30
0.0
 10
203.573784
 20
717.906068
 30
0.0
 10
204.284440
 20
721.407980
 30
0.0
 10
209.632344
 20
731.162804
 30
0.0
  0
SPLINE
  5
163
100
AcDbEntity
  8
Layer_1
 62
7
100
AcDbSpline
 70
8
 71
3
 72
8
 73
4
 74
0
 40
0
 40
0
 40
0
 40
0
 40
1
 40
1
 40
1
 40
1
 10
209.632344
 20
731.162804
 30
0.0
 10
213.226248
 20
737.718244
 30
0.0
 10
216.166712
 20
745.141308
 30
0.0
 10
216.166712
 20
747.658508
 30
0.0
  0
SPLINE
  5
164
100
AcDbEntity
  8
Layer_1
 62
7
100
AcDbSpline
 70
8
 71
3
 72
8
 73
4
 74
0
 40
0
 40
0
 40
0
 40
0
 40
1
 40
1
 40
1
 40
1
 10
216.166712
 20
747.658508
 30
0.0
 10
216.166712
 20
750.175700
 30
0.0
 10
219.046080
 20
754.251964
 30
0.0
 10
222.565304
 20
756.716868
 30
0.0
  0
SPLINE
  5
165
100
AcDbEntity
  8
Layer_1
 62
7
100
AcDbSpline
 70
8
 71
3
 72
8
 73
4
 74
0
 40
0
 40
0
 40
0
 40
0
 40
1
 40
1
 40
1
 40
1
 10
222.565304
 20
756.716868
 30
0.0
 10
226.084528
 20
759.181764
 30
0.0
 10
231.382008
 20
765.579535
 30
0.0
 10
234.337488
 20
770.934125
 30
0.0
  0
SPLINE
  5
166
100
AcDbEntity
  8
Layer_1
 62
7
100
AcDbSpline
 70
8
 71
3
 72
8
 73
4
 74
0
 40
0
 40
0
 40
0
 40
0
 40
1
 40
1
 40
1
 40
1
 10
234.337488
 20
770.934125
 30
0.0
 10
240.754888
 20
782.560883
 30
0.0
 10
248.233464
 20
782.731165
 30
0.0
 10
256.096920
 20
771.429576
 30
0.0
  0
SPLINE
  5
167
100
AcDbEntity
  8
Layer_1
 62
7
100
AcDbSpline
 70
8
 71
3
 72
8
 73
4
 74
0
 40
0
 40
0
 40
0
 40
0
 40
1
 40
1
 40
1
 40
1
 10
256.096920
 20
771.429576
 30
0.0
 10
262.895032
 20
761.659140
 30
0.0
 10
260.429312
 20
755.156196
 30
0.0
 10
249.926536
 20
755.156196
 30
0.0
  0
SPLINE
  5
168
100
AcDbEntity
  8
Layer_1
 62
7
100
AcDbSpline
 70
8
 71
3
 72
8
 73
4
 74
0
 40
0
 40
0
 40
0
 40
0
 40
1
 40
1
 40
1
 40
1
 10
249.926536
 20
755.156196
 30
0.0
 10
243.128592
 20
755.156196
 30
0.0
 10
242.056880
 20
754.321820
 30
0.0
 10
243.650208
 20
750.269788
 30
0.0
  0
SPLINE
  5
169
100
AcDbEntity
  8
Layer_1
 62
7
100
AcDbSpline
 70
8
 71
3
 72
8
 73
4
 74
0
 40
0
 40
0
 40
0
 40
0
 40
1
 40
1
 40
1
 40
1
 10
243.650208
 20
750.269788
 30
0.0
 10
244.706992
 20
747.582260
 30
0.0
 10
246.153552
 20
742.509700
 30
0.0
 10
246.864784
 20
738.997436
 30
0.0
  0
SPLINE
  5
16a
100
AcDbEntity
  8
Layer_1
 62
7
100
AcDbSpline
 70
8
 71
3
 72
8
 73
4
 74
0
 40
0
 40
0
 40
0
 40
0
 40
1
 40
1
 40
1
 40
1
 10
246.864784
 20
738.997436
 30
0.0
 10
247.576016
 20
735.485164
 30
0.0
 10
253.302088
 20
728.828148
 30
0.0
 10
259.589384
 20
724.204060
 30
0.0
  0
SPLINE
  5
16b
100
AcDbEntity
  8
Layer_1
 62
7
100
AcDbSpline
 70
8
 71
3
 72
8
 73
4
 74
0
 40
0
 40
0
 40
0
 40
0
 40
1
 40
1
 40
1
 40
1
 10
259.589384
 20
724.204060
 30
0.0
 10
270.566176
 20
716.131020
 30
0.0
 10
274.282752
 20
707.380564
 30
0.0
 10
268.388688
 20
703.486620
 30
0.0
  0
SPLINE
  5
16c
100
AcDbEntity
  8
Layer_1
 62
7
100
AcDbSpline
 70
8
 71
3
 72
8
 73
4
 74
0
 40
0
 40
0
 40
0
 40
0
 40
1
 40
1
 40
1
 40
1
 10
268.388688
 20
703.486620
 30
0.0
 10
265.429904
 20
701.531884
 30
0.0
 10
257.960328
 20
708.441412
 30
0.0
 10
257.960328
 20
713.133100
 30
0.0
  0
SPLINE
  5
16d
100
AcDbEntity
  8
Layer_1
 62
7
100
AcDbSpline
 70
8
 71
3
 72
8
 73
4
 74
0
 40
0
 40
0
 40
0
 40
0
 40
1
 40
1
 40
1
 40
1
 10
257.960328
 20
713.133100
 30
0.0
 10
257.960328
 20
717.662876
 30
0.0
 10
245.278960
 20
723.171564
 30
0.0
 10
242.265840
 20
719.950660
 30
0.0
  0
SPLINE
  5
16e
100
AcDbEntity
  8
Layer_1
 62
7
100
AcDbSpline
 70
8
 71
3
 72
8
 73
4
 74
0
 40
0
 40
0
 40
0
 40
0
 40
1
 40
1
 40
1
 40
1
 10
242.265840
 20
719.950660
 30
0.0
 10
240.895096
 20
718.485380
 30
0.0
 10
239.108976
 20
713.556268
 30
0.0
 10
238.296688
 20
708.997076
 30
0.0
  0
SPLINE
  5
16f
100
AcDbEntity
  8
Layer_1
 62
7
100
AcDbSpline
 70
8
 71
3
 72
8
 73
4
 74
0
 40
0
 40
0
 40
0
 40
0
 40
1
 40
1
 40
1
 40
1
 10
238.296688
 20
708.997076
 30
0.0
 10
237.085224
 20
702.197340
 30
0.0
 10
238.523680
 20
698.700436
 30
0.0
 10
246.300920
 20
689.538692
 30
0.0
  0
SPLINE
  5
170
100
AcDbEntity
  8
Layer_1
 62
7
100
AcDbSpline
 70
8
 71
3
 72
8
 73
4
 74
0
 40
0
 40
0
 40
0
 40
0
 40
1
 40
1
 40
1
 40
1
 10
246.300920
 20
689.538692
 30
0.0
 10
256.288128
 20
677.773564
 30
0.0
 10
256.702304
 20
673.740036
 30
0.0
 10
251.034064
 20
643.444396
 30
0.0
  0
SPLINE
  5
171
100
AcDbEntity
  8
Layer_1
 62
7
100
AcDbSpline
 70
8
 71
3
 72
8
 73
4
 74
0
 40
0
 40
0
 40
0
 40
0
 40
1
 40
1
 40
1
 40
1
 10
251.034064
 20
643.444396
 30
0.0
 10
249.795392
 20
636.823924
 30
0.0
 10
250.752544
 20
635.341548
 30
0.0
 10
258.355896
 20
632.104876
 30
0.0
  0
LWPOLYLINE
  5
172
100
AcDbEntity
  8
Layer_1
 62
7
100
AcDbPolyline
 90
3
 70
1
 10
212.145832
 20
659.008924
 30
0.0
 10
218.389552
 20
663.382084
 30
0.0
 10
211.819312
 20
677.365228
 30
0.0
  0
SPLINE
  5
173
100
AcDbEntity
  8
Layer_1
 62
7
100
AcDbSpline
 70
8
 71
3
 72
8
 73
4
 74
0
 40
0
 40
0
 40
0
 40
0
 40
1
 40
1
 40
1
 40
1
 10
255.729376
 20
627.372684
 30
0.0
 10
249.474056
 20
626.817860
 30
0.0
 10
243.596832
 20
627.176532
 30
0.0
 10
242.668872
 20
628.169716
 30
0.0
  0
SPLINE
  5
174
100
AcDbEntity
  8
Layer_1
 62
7
100
AcDbSpline
 70
8
 71
3
 72
8
 73
4
 74
0
 40
0
 40
0
 40
0
 40
0
 40
1
 40
1
 40
1
 40
1
 10
242.668872
 20
628.169716
 30
0.0
 10
241.740912
 20
629.162908
 30
0.0
 10
240.924608
 20
639.326028
 30
0.0
 10
240.854864
 20
650.754436
 30
0.0
  0
SPLINE
  5
175
100
AcDbEntity
  8
Layer_1
 62
7
100
AcDbSpline
 70
8
 71
3
 72
8
 73
4
 74
0
 40
0
 40
0
 40
0
 40
0
 40
1
 40
1
 40
1
 40
1
 10
240.854864
 20
650.754436
 30
0.0
 10
240.740352
 20
669.517052
 30
0.0
 10
240.043328
 20
672.265300
 30
0.0
 10
233.671584
 20
679.076444
 30
0.0
  0
SPLINE
  5
176
100
AcDbEntity
  8
Layer_1
 62
7
100
AcDbSpline
 70
8
 71
3
 72
8
 73
4
 74
0
 40
0
 40
0
 40
0
 40
0
 40
1
 40
1
 40
1
 40
1
 10
233.671584
 20
679.076444
 30
0.0
 10
225.876224
 20
687.409388
 30
0.0
 10
224.826240
 20
684.905060
 30
0.0
 10
229.270152
 20
668.578500
 30
0.0
  0
SPLINE
  5
177
100
AcDbEntity
  8
Layer_1
 62
7
100
AcDbSpline
 70
8
 71
3
 72
8
 73
4
 74
0
 40
0
 40
0
 40
0
 40
0
 40
1
 40
1
 40
1
 40
1
 10
229.270152
 20
668.578500
 30
0.0
 10
231.580008
 20
660.092292
 30
0.0
 10
231.216176
 20
658.200412
 30
0.0
 10
226.471664
 20
654.026844
 30
0.0
  0
SPLINE
  5
178
100
AcDbEntity
  8
Layer_1
 62
7
100
AcDbSpline
 70
8
 71
3
 72
8
 73
4
 74
0
 40
0
 40
0
 40
0
 40
0
 40
1
 40
1
 40
1
 40
1
 10
226.471664
 20
654.026844
 30
0.0
 10
223.472224
 20
651.388348
 30
0.0
 10
216.909232
 20
648.405588
 30
0.0
 10
211.887232
 20
647.398484
 30
0.0
  0
SPLINE
  5
179
100
AcDbEntity
  8
Layer_1
 62
7
100
AcDbSpline
 70
8
 71
3
 72
8
 73
4
 74
0
 40
0
 40
0
 40
0
 40
0
 40
1
 40
1
 40
1
 40
1
 10
211.887232
 20
647.398484
 30
0.0
 10
202.923192
 20
645.600852
 30
0.0
 10
202.787592
 20
645.369604
 30
0.0
 10
204.466920
 20
634.744284
 30
0.0
  0
SPLINE
  5
17a
100
AcDbEntity
  8
Layer_1
 62
7
100
AcDbSpline
 70
8
 71
3
 72
8
 73
4
 74
0
 40
0
 40
0
 40
0
 40
0
 40
1
 40
1
 40
1
 40
1
 10
204.466920
 20
634.744284
 30
0.0
 10
206.242304
 20
623.511220
 30
0.0
 10
204.957400
 20
622.125260
 30
0.0
 10
197.228984
 20
626.937068
 30
0.0
  0
LWPOLYLINE
  5
17b
100
AcDbEntity
  8
Layer_1
 62
7
100
AcDbPolyline
 90
3
 70
1
 10
258.355896
 20
632.104876
 30
0.0
 10
267.102680
 20
628.381452
 30
0.0
 10
255.729376
 20
627.372684
 30
0.0
  0
LWPOLYLINE
  5
17c
100
AcDbEntity
  8
Layer_1
 62
7
100
AcDbPolyline
 90
2
 70
1
 10
197.228984
 20
626.937068
 30
0.0
 10
197.228984
 20
626.937068
 30
0.0
  0
ENDSEC
  0
SECTION
  2
OBJECTS
  0
DICTIONARY
  5
C
330
0
100
AcDbDictionary
  3
ACAD_GROUP
350
D
  3
ACAD_MLINESTYLE
350
17
  0
DICTIONARY
  5
D
330
C
100
AcDbDictionary
  0
DICTIONARY
  5
1A
330
C
100
AcDbDictionary
  0
DICTIONARY
  5
17
330
C
100
AcDbDictionary
  3
STANDARD
350
18
  0
DICTIONARY
  5
19
330
C
100
AcDbDictionary
  0
ENDSEC
  0
EOF
